{"title":"Godard - Masculin feminin (1966)","uid":5145109,"size":1334538394,"categoryP":"video","categoryS":"movies","magnet":"?xt=urn:btih:807cfaeeaad9aee73bc9eadbfe85d52611dd8308&amp;dn=Godard+-+Masculin+feminin+%281966%29&amp;tr=udp%3A%2F%2Ftracker.openbittorrent.com%3A80&amp;tr=udp%3A%2F%2Fopen.demonii.com%3A1337&amp;tr=udp%3A%2F%2Ftracker.coppersurfer.tk%3A6969&amp;tr=udp%3A%2F%2Fexodus.desync.com%3A6969","seeders":12,"leechers":0,"uploader":"mfccorrea","files":4,"time":1257174135,"description":"Masculine Feminine was Jean-Luc Godard's first (but not his last) foray into the burgeoning &quot;Children of the Sixties&quot; generation -- or, as Godard described it, &quot;the children of Marx and Coca-Cola.&quot; Impressionable teenager Paul (Jean-Pierre LÃƒÂ©aud) tries to make sense of the world by working as an interviewer for a research firm. Meanwhile, Paul cohabits with aspiring singer Madeleine (Chantal Goya), with two additional young ladies joining the nocturnal festivities. Paul jumps or is pushed from a window, leaving a pregnant Madeleine to move on to the next aimless youth she meets. While the nominal hero has failed to find fulfillment in personal relations, another male protagonist (Michel Debord), a political activist, is luckier -- an indication that the director favored revolutionary politics over simple emotionalism at this point in his career. Though Godard's free-form style is usually opposed to linear storytelling, Masculine Feminine has solid literary roots, having been inspired by two Guy de Maupassant stories. \n\n   General\n      Complete name : Masculin Feminin.avi\n      Format : AVI\n      Format/Info : Audio Video Interleave\n      File size : 1.24 GiB\n      Duration : 1h 44mn\n      Overall bit rate : 1 700 Kbps\n      Writing application : VirtualDubMod 1.5.4.1 (build 2178/release)\n      Writing library : VirtualDubMod build 2178/release\n   Video #0\n      ID : 0\n      Format : MPEG-4 Visual\n      Format profile : AdvancedSimple@L5\n      Format settings, BVOP : Yes\n      Format settings, QPel : No\n      Format settings, GMC : No warppoints\n      Format settings, Matrix : Custom\n      Codec ID : XVID\n      Codec ID/Hint : XviD\n      Duration : 1h 44mn\n      Bit rate : 1 502 Kbps\n      Width : 640 pixels\n      Height : 480 pixels\n      Display aspect ratio : 4:3\n      Frame rate : 23.976 fps\n      Resolution : 24 bits\n      Colorimetry : 4:2:0\n      Scan type : Progressive\n      Bits/(Pixel*Frame) : 0.204\n      Stream size : 1.10 GiB (88%)\n      Writing library : XviD 1.1.2 (UTC 2006-11-01)\n   Audio #1\n      ID : 1\n      Format : AC-3\n      Format/Info : Audio Coding 3\n      Codec ID : 2000\n      Duration : 1h 44mn\n      Bit rate mode : Constant\n      Bit rate : 192 Kbps\n      Channel(s) : 1 channel\n      Channel positions : C\n      Sampling rate : 48.0 KHz\n      Stream size : 144 MiB (11%)\n      Alignment : Split accross interleaves\n      Interleave, duration : 96 ms (2.30 video frames)\n      Interleave, preload duration : 96 ms\n      Language : French\n\nIMDB: tt0060675\n\nFrench audio; English, Spanish and Portuguese subtitles\n\nPosted at Karagarga by crasus\n\nCriterion Collection Rip.","torrent":{"xt":"urn:btih:807cfaeeaad9aee73bc9eadbfe85d52611dd8308","amp;dn":"Godard+-+Masculin+feminin+%281966%29","amp;tr":["udp%3A%2F%2Ftracker.openbittorrent.com%3A80","udp%3A%2F%2Fopen.demonii.com%3A1337","udp%3A%2F%2Ftracker.coppersurfer.tk%3A6969","udp%3A%2F%2Fexodus.desync.com%3A6969"],"infoHash":"807cfaeeaad9aee73bc9eadbfe85d52611dd8308","infoHashBuffer":{"type":"Buffer","data":[128,124,250,238,170,217,174,231,59,201,234,219,254,133,213,38,17,221,131,8]},"announce":[],"urlList":[]}}